<svg width="30" height="23" viewBox="0 0 30 23" fill="none" xmlns="http://www.w3.org/2000/svg">
<path d="M28.895 6.33485L26.0915 4.63184C25.5689 3.12182 24.4733 1.83268 23.0026 0.997452C21.532 0.16222 19.7833 -0.164 18.0727 0.0777533C16.3622 0.319507 14.8025 1.11328 13.6757 2.31561C12.5489 3.51794 11.9293 5.04949 11.9289 6.63343V8.53549L0.545586 21.5624C0.432038 21.6922 0.360748 21.8486 0.33989 22.0138C0.319031 22.1789 0.349448 22.3461 0.427653 22.4962C0.505858 22.6462 0.628686 22.7731 0.782057 22.8622C0.935428 22.9513 1.11313 22.9991 1.2948 23H13.8623C17.1935 22.9942 20.3864 21.7806 22.7419 19.625C25.0973 17.4695 26.4235 14.5476 26.4299 11.4992V9.32065L28.895 7.81669C29.0297 7.7363 29.1403 7.62644 29.2168 7.49707C29.2934 7.3677 29.3335 7.2229 29.3335 7.07577C29.3335 6.92865 29.2934 6.78384 29.2168 6.65447C29.1403 6.5251 29.0297 6.41525 28.895 6.33485ZM13.6327 13.8325L8.79907 19.1406C8.62725 19.2912 8.40078 19.3785 8.163 19.3859C7.92522 19.3932 7.69283 19.32 7.51031 19.1804C7.32778 19.0407 7.20794 18.8444 7.17371 18.6289C7.13948 18.4135 7.19328 18.194 7.3248 18.0126L12.1585 12.7045C12.2336 12.6009 12.3318 12.5129 12.4467 12.4463C12.5615 12.3797 12.6904 12.336 12.825 12.3181C12.9595 12.3002 13.0967 12.3085 13.2275 12.3424C13.3583 12.3763 13.4798 12.4351 13.5841 12.5149C13.6884 12.5947 13.7732 12.6937 13.8328 12.8055C13.8925 12.9173 13.9256 13.0394 13.9302 13.1638C13.9348 13.2881 13.9107 13.4119 13.8594 13.5272C13.8082 13.6424 13.7309 13.7465 13.6327 13.8325ZM20.1461 7.07577C19.8593 7.07577 19.5789 6.99794 19.3405 6.85213C19.102 6.70631 18.9161 6.49906 18.8064 6.25658C18.6966 6.0141 18.6679 5.74728 18.7239 5.48986C18.7798 5.23245 18.9179 4.99599 19.1207 4.81041C19.3235 4.62482 19.5819 4.49843 19.8632 4.44723C20.1445 4.39603 20.436 4.42231 20.701 4.52275C20.966 4.62319 21.1925 4.79327 21.3518 5.0115C21.5111 5.22973 21.5962 5.48629 21.5962 5.74875C21.5962 6.1007 21.4434 6.43823 21.1715 6.6871C20.8995 6.93596 20.5307 7.07577 20.1461 7.07577Z" fill="#DFA533"/>
</svg>
