<svg width="29" height="23" viewBox="0 0 29 23" fill="none" xmlns="http://www.w3.org/2000/svg">
<path d="M28.3019 6.76219L28.3019 6.7622L28.3052 6.76415C28.3714 6.80368 28.4209 6.85472 28.453 6.90912C28.485 6.96315 28.5 7.02027 28.5 7.07577C28.5 7.13127 28.485 7.18839 28.453 7.24242C28.4209 7.29682 28.3714 7.34787 28.3052 7.38739L28.3052 7.38737L28.3011 7.38985L25.836 8.89381L25.5964 9.03998V9.32065L25.5964 11.4981C25.5964 11.4984 25.5964 11.4987 25.5964 11.499C25.59 14.3999 24.3284 17.1902 22.0708 19.2562C19.8116 21.3237 16.7404 22.4944 13.528 22.5H0.962918C0.866751 22.4993 0.775443 22.4738 0.699751 22.4299C0.624059 22.3859 0.569862 22.3271 0.537555 22.2651C0.505563 22.2037 0.494572 22.1388 0.502453 22.0764C0.510366 22.0138 0.537926 21.9493 0.58839 21.8916L0.588597 21.8914L11.9719 8.86449L12.0954 8.72317V8.53549V6.63357C12.0954 6.63352 12.0954 6.63348 12.0954 6.63343C12.0958 5.18203 12.6632 3.7713 13.707 2.65752C14.7519 1.54261 16.2056 0.799468 17.8092 0.572833C19.4129 0.346182 21.0498 0.652807 22.4222 1.43223C23.7939 2.21127 24.8051 3.40727 25.2855 4.79537L25.3444 4.96564L25.4984 5.05918L28.3019 6.76219ZM8.79514 19.5166L8.81631 19.498L8.83526 19.4772L13.652 14.1877C13.792 14.0596 13.9053 13.9046 13.9828 13.7304C14.0646 13.5465 14.1038 13.3469 14.0964 13.1453C14.089 12.9438 14.0351 12.7477 13.9405 12.5702C13.8459 12.393 13.7135 12.2394 13.5545 12.1178C13.3956 11.9962 13.213 11.9086 13.0194 11.8584C12.8259 11.8082 12.6237 11.7961 12.4255 11.8225C12.2273 11.8489 12.0354 11.9134 11.8624 12.0137C11.6982 12.1089 11.5535 12.2349 11.4386 12.3862L6.62162 17.676L6.60284 17.6966L6.58648 17.7192C6.37956 18.0046 6.29077 18.3571 6.34641 18.7074C6.40191 19.0568 6.59462 19.3645 6.87299 19.5775C7.15036 19.7897 7.49648 19.8964 7.84494 19.8856C8.19343 19.8748 8.5323 19.747 8.79514 19.5166ZM18.7461 7.2787C19.0653 7.47383 19.4363 7.57577 19.8126 7.57577C20.3162 7.57577 20.8071 7.39311 21.1755 7.05596C21.5454 6.71745 21.7627 6.24834 21.7627 5.74875C21.7627 5.377 21.642 5.01778 21.4221 4.71665C21.2027 4.41618 20.8957 4.18826 20.5447 4.05521C20.1939 3.92223 19.8101 3.88798 19.4402 3.95531C19.0702 4.02267 18.7248 4.18979 18.4497 4.44155C18.1741 4.69372 17.9807 5.0206 17.9018 5.38366C17.8227 5.74723 17.8638 6.12351 18.0174 6.46276C18.1706 6.80128 18.4267 7.08337 18.7461 7.2787Z" stroke="#949494"/>
</svg>
