<svg width="19" height="19" viewBox="0 0 19 19" fill="none" xmlns="http://www.w3.org/2000/svg">
<path d="M18.1655 1.555C18.2659 1.4044 18.3237 1.22935 18.3324 1.04852C18.3412 0.867687 18.3008 0.687865 18.2153 0.528235C18.1299 0.368605 18.0028 0.235156 17.8475 0.142126C17.6922 0.049095 17.5145 -2.70837e-05 17.3335 1.12028e-08H1.33347C1.15258 9.3452e-05 0.975112 0.0492478 0.819954 0.142228C0.664797 0.235208 0.537764 0.368532 0.452387 0.527999C0.367009 0.687466 0.326484 0.867105 0.335127 1.04778C0.34377 1.22846 0.401258 1.40341 0.501468 1.554L8.33347 13.303V17H5.33347V19H13.3335V17H10.3335V13.303L18.1655 1.555ZM9.33347 11.197L5.86847 6H12.7985L9.33347 11.197ZM15.4655 2L14.1325 4H4.53447L3.20147 2H15.4655Z" fill="#FAFAFA"/>
</svg>
