<svg width="25" height="24" viewBox="0 0 25 24" fill="none" xmlns="http://www.w3.org/2000/svg">
<path d="M24.3068 11.9966C24.3152 11.7114 24.3904 7.63507 21.978 4.98152C21.8708 4.74432 21.3624 3.78834 19.7216 2.61996C18.9942 2.05573 18.2216 1.55231 17.4117 1.11478L17.4085 1.11318C17.3061 1.05838 15.3053 0 12.8769 0C12.6925 0 12.5101 0.0107999 12.3297 0.0231996V0.0199996C10.4781 -0.0203997 8.63893 0.455992 7.53054 0.956384C6.54735 1.40038 5.45576 2.14476 5.37696 2.20236C4.01537 2.96395 1.43339 6.0203 1.22899 7.63987C0.403797 8.69466 -0.285798 13.4326 1.23059 16.3185C2.29378 20.3293 6.29615 22.3364 6.61455 22.4904C6.80815 22.614 8.98933 23.9624 11.6689 23.9624C11.7813 23.9624 12.4609 24 12.7033 24C15.5997 24 19.8916 21.9584 20.79 20.3593C23.2584 18.5537 24.538 13.9006 24.3068 11.9966ZM6.63655 18.0217C5.48896 16.1653 4.83496 13.7398 4.69496 13.1826C5.05816 12.6382 6.84975 9.99663 7.87054 9.20185C8.44854 9.30824 10.8621 9.75144 13.1385 10.1634C13.4245 10.9046 14.6793 14.175 15.0385 15.4373C14.6425 15.9069 13.0869 17.7181 11.5553 19.1365C9.92932 19.1441 7.16374 18.2061 6.63655 18.0217ZM21.0628 5.03192C21.058 5.21191 21.0152 5.8519 20.7088 6.58669C20.1004 6.2759 18.5713 5.61031 16.4753 5.49791C16.1581 5.02952 14.9645 3.39634 13.0793 2.26356C13.3373 1.75877 13.6965 1.14318 13.9065 0.955584C13.9745 0.936384 14.0801 0.918785 14.2409 0.918785C15.2517 0.918785 16.9981 1.58077 17.1501 1.63957C17.3113 1.72477 20.4504 3.41514 21.0628 5.03192ZM4.24257 12.8046C2.87338 12.571 2.05938 12.1454 1.81619 12.0014C1.30699 10.1546 1.71699 8.15866 1.78019 7.87267C2.28258 6.97428 3.71297 4.68432 4.65656 4.24953C5.63456 4.04993 6.85415 4.29793 7.35094 4.41913C7.30414 5.06512 7.21415 6.86989 7.48134 8.76385C6.39895 9.63504 4.68576 12.1426 4.24257 12.8046ZM12.2073 0.61199C12.5145 0.634789 12.9653 0.701988 13.2741 0.793587C12.9661 1.20318 12.6505 1.81037 12.5013 2.11036C11.8733 2.21316 9.48813 2.66916 7.61694 3.88234C7.23974 3.78234 6.10055 3.51554 5.02176 3.60754C5.28896 3.09035 5.68816 2.70795 5.73096 2.66876C5.87936 2.56236 8.73613 0.563591 12.2073 0.60679V0.61199ZM19.8456 15.8489C19.3777 15.8297 17.5745 15.7269 15.5973 15.2625C15.2185 13.9418 13.9677 10.685 13.6817 9.94423C14.5917 8.64723 15.5154 7.35998 16.4529 6.0827C18.7281 6.2075 20.3256 7.03748 20.6348 7.21068C21.9528 9.33024 22.242 11.495 22.2816 11.8566C21.5816 14.035 20.1972 15.5017 19.8456 15.8489ZM0.995393 10.6074C1.02899 11.1138 1.11019 11.647 1.25699 12.1742C1.12501 12.5158 1.03346 12.8717 0.984193 13.2346C0.900655 12.3607 0.904406 11.4806 0.995393 10.6074ZM4.85296 19.9509C5.45616 19.3697 6.19975 18.8041 6.48815 18.5905C7.14015 18.8201 9.81773 19.7253 11.5245 19.7253C11.8153 20.1153 12.7661 21.3364 13.9317 22.27C13.2061 22.98 12.1581 23.3152 11.9729 23.3708C8.72213 23.458 5.55616 21.6308 4.85296 19.9509ZM13.4381 23.366C13.8069 23.1512 14.1913 22.8684 14.5093 22.5104C15.0281 22.4388 17.2545 22.0556 19.2665 20.5777C19.3993 20.5921 19.618 20.6097 19.8624 20.6029C18.6553 21.7856 15.7097 23.1068 13.4381 23.366ZM19.6076 20.0157C20.3304 18.1325 20.2996 16.7125 20.264 16.2589C20.6608 15.8701 22.0224 14.4194 22.778 12.2138C23.1852 12.2818 23.45 12.3854 23.5756 12.4434C23.6192 12.6034 23.692 12.973 23.6508 13.5334C23.3428 15.5505 22.2796 18.5733 20.4172 19.9097C20.23 20.0053 19.9004 20.0261 19.6076 20.0157Z" fill="#FAFAFA"/>
</svg>
