<svg width="26" height="25" viewBox="0 0 26 25" fill="none" xmlns="http://www.w3.org/2000/svg">
<mask id="path-1-inside-1_2019_560" fill="white">
<path d="M5.65106 2.42313C5.69891 2.48719 5.76538 2.5349 5.84138 2.55976C5.91738 2.58461 5.9992 2.58538 6.07565 2.56197C6.1521 2.53856 6.21946 2.49212 6.26852 2.42898C6.31758 2.36584 6.34594 2.28909 6.34973 2.20922L6.46876 0.42459C6.47366 0.361285 6.46319 0.297733 6.43825 0.239343C6.41331 0.180952 6.37463 0.129451 6.32551 0.0892206C6.27638 0.0489903 6.21827 0.0212219 6.15611 0.00827792C6.09395 -0.00466608 6.02958 -0.0024025 5.96848 0.014876L4.7954 0.379737C4.73471 0.399692 4.67963 0.433766 4.63467 0.479158C4.58971 0.52455 4.55617 0.579964 4.53681 0.640844C4.51744 0.701723 4.5128 0.76633 4.52327 0.829353C4.53373 0.892376 4.55901 0.952015 4.59701 1.00337L5.65106 2.42313ZM3.61542 3.8222L2.01107 3.14941C1.953 3.1258 1.90164 3.08828 1.8615 3.04014C1.82136 2.992 1.79368 2.93472 1.78089 2.87336C1.76811 2.812 1.77062 2.74844 1.7882 2.68827C1.80577 2.62811 1.83788 2.5732 1.88168 2.52837L2.71837 1.63993C2.76137 1.59455 2.81471 1.56022 2.87383 1.53988C2.93296 1.51953 2.99612 1.51378 3.05795 1.52309C3.11978 1.53241 3.17845 1.55652 3.22895 1.59339C3.27946 1.63025 3.32031 1.67877 3.34803 1.73481L4.11571 3.29604C4.1489 3.36706 4.15992 3.44644 4.14732 3.52382C4.13471 3.60119 4.09908 3.67297 4.04506 3.72978C3.99104 3.7866 3.92114 3.82581 3.8445 3.84229C3.76786 3.85878 3.68803 3.85178 3.61542 3.8222ZM24.422 7.3906C24.7107 7.64032 24.9464 7.94539 25.1152 8.28777C25.2839 8.63016 25.3823 9.0029 25.4045 9.38397V17.5308C25.4709 18.8142 25.1951 20.0922 24.6052 21.2339C24.0153 22.3756 23.1326 23.3401 22.0474 24.0285C20.9734 24.6701 19.7438 25.0045 18.4928 24.9954C17.6529 24.9942 16.8191 24.8525 16.0259 24.5762C15.268 24.8554 14.4668 24.9988 13.659 24.9997C12.5335 25.01 11.4214 24.7542 10.4135 24.2531C9.40558 23.752 8.53036 23.0198 7.85921 22.1162L4.86527 17.2281L2.70888 13.5881C2.4081 13.0071 2.31628 12.3404 2.44884 11.6998C2.58139 11.0591 2.93025 10.4836 3.43688 10.0697C3.63095 9.93773 3.8371 9.8256 4.0536 9.73417C3.86148 9.18558 3.84994 8.58992 4.02066 8.0343C4.19138 7.47868 4.5354 6.99227 5.00242 6.64621C5.19218 6.52977 5.39057 6.43057 5.59758 6.35036C5.56998 6.12695 5.5717 5.90183 5.60362 5.67842C5.66154 5.27913 5.80772 4.89776 6.03153 4.56204C6.25534 4.22633 6.55115 3.94472 6.89745 3.73767C7.37396 3.47123 7.91865 3.35174 8.46292 3.39426C9.0072 3.43678 9.52673 3.6394 9.95608 3.9766C10.101 3.8222 10.2666 3.68851 10.4469 3.57724C11.0032 3.24386 11.6681 3.14197 12.2988 3.29346C12.6705 3.19407 13.0578 3.16626 13.4399 3.21151C13.9303 3.26449 14.3931 3.46477 14.7674 3.78597C14.9149 3.62899 15.0831 3.49184 15.2668 3.37799C15.8575 3.03001 16.562 2.93021 17.2261 3.10043C17.8902 3.27066 18.4598 3.69704 18.8102 4.28626L20.5974 7.47772C20.8323 7.23618 21.1125 7.0433 21.422 6.9101C21.7315 6.7769 22.0642 6.70599 22.4011 6.70142C23.1386 6.66126 23.863 6.90774 24.422 7.3906ZM14.2024 10.6424H14.1973L14.1654 10.664L14.1878 10.6502L14.2024 10.6424ZM8.31809 5.11604C8.13782 5.10318 7.95726 5.13674 7.79365 5.21351V5.21006C7.66477 5.28327 7.55422 5.38484 7.47039 5.50708C7.38655 5.62932 7.33162 5.76902 7.30976 5.91563C7.28725 6.08234 7.32289 6.25171 7.41068 6.39521L8.69071 8.34028C8.71722 7.96867 8.82782 7.60794 9.01415 7.28533C9.20048 6.96273 9.45768 6.68667 9.76632 6.47801C9.80772 6.45214 9.84912 6.43402 9.88966 6.41505C9.91727 6.40297 9.94573 6.38917 9.97419 6.37451C9.75107 6.34581 9.54816 6.23057 9.40922 6.05364L8.8753 5.36359C8.8563 5.33903 8.83873 5.3134 8.82268 5.28682C8.67181 5.18777 8.4981 5.12897 8.31809 5.11604ZM6.34455 7.91935C6.18604 7.9649 6.03496 8.03318 5.89603 8.12205L5.89861 8.1186C5.76952 8.27459 5.68474 8.46244 5.65318 8.66245C5.62162 8.86246 5.64442 9.06728 5.7192 9.25545C5.82875 9.46591 5.90983 9.61772 5.97193 9.73503L5.97797 9.74538L7.18986 11.5671C7.28474 11.066 7.51591 10.6002 7.85748 10.2215L6.34455 7.91935ZM6.34024 16.3422L9.29709 21.1725L9.29967 21.1691C9.8166 21.8502 10.4899 22.3968 11.2626 22.7628C12.0353 23.1288 12.8848 23.3035 13.7393 23.272C13.3302 22.9258 12.9663 22.5297 12.6559 22.0929L9.63176 17.1565L8.35431 15.0001C8.16779 15.1036 7.94925 15.1336 7.74172 15.0841C7.5342 15.0347 7.35271 14.9093 7.23299 14.7327L4.91616 11.2609C4.72984 11.3068 4.55411 11.3882 4.39863 11.5007C4.2628 11.6656 4.1717 11.8626 4.13408 12.0729C4.09646 12.2832 4.1136 12.4996 4.18385 12.7014L6.34024 16.3422ZM17.3551 23.1849C18.6533 23.4446 20.0016 23.2222 21.1478 22.5595L21.1503 22.5561C21.9674 22.0304 22.6317 21.2989 23.0764 20.4351C23.5211 19.5713 23.7305 18.6056 23.6837 17.6352V9.43831C23.6697 9.29021 23.6264 9.14637 23.5563 9.01517C23.4862 8.88397 23.3907 8.76803 23.2753 8.67411C23.1599 8.58019 23.027 8.51015 22.8844 8.46809C22.7417 8.42603 22.592 8.41278 22.4442 8.42912C22.2228 8.43344 22.0108 8.5191 21.8485 8.66975C21.6862 8.82041 21.5851 9.02551 21.5644 9.24596C21.899 9.84716 22.1768 10.3423 22.3139 10.5795C22.4171 10.7766 22.44 11.006 22.378 11.2196C22.3161 11.4333 22.1739 11.6147 21.9813 11.7261C21.7887 11.8374 21.5605 11.87 21.3444 11.8171C21.1283 11.7642 20.9411 11.6298 20.8217 11.442C20.5486 10.9636 20.2786 10.4835 20.0118 10.0016L19.9505 9.89202V9.84026C19.9471 9.83336 19.9419 9.82905 19.9376 9.82301C19.9324 9.81697 19.9264 9.81094 19.9221 9.80317L17.3344 5.18073C17.2675 5.03983 17.1613 4.92129 17.0286 4.8394C16.8958 4.75752 16.7422 4.71579 16.5863 4.71926C16.4304 4.72272 16.2788 4.77123 16.1498 4.85893C16.0208 4.94663 15.92 5.06977 15.8594 5.21351L16.7427 6.63155L16.8384 6.78681C17.499 7.85429 18.1655 8.91813 18.8378 9.97827C18.9567 10.1703 18.9955 10.4012 18.946 10.6215C18.8965 10.8418 18.7625 11.0339 18.5729 11.1566C18.3833 11.2792 18.1532 11.3226 17.9319 11.2774C17.7107 11.2323 17.516 11.1022 17.3896 10.915C16.7125 9.84696 16.0406 8.77565 15.3738 7.70112L14.6346 6.51424L14.2844 5.95099L14.2732 5.93374L14.2482 5.89234C14.2447 5.88803 14.2404 5.88544 14.2361 5.88199C14.231 5.87785 14.2264 5.87323 14.2223 5.86819L13.6832 5.16693C13.6649 5.14209 13.6476 5.11647 13.6314 5.09016C13.5185 4.98685 13.3721 4.92774 13.2191 4.92369C13.002 4.8872 12.7789 4.91727 12.5791 5.00994C12.448 5.08468 12.3356 5.18817 12.2503 5.31262C12.165 5.43707 12.109 5.57925 12.0866 5.72845C12.0647 5.88811 12.0949 6.05058 12.1729 6.19165C12.5735 6.3507 12.9433 6.57838 13.2657 6.86444C13.5314 7.13528 13.766 7.43632 13.9644 7.7615C14.205 8.12464 14.4767 8.56972 14.7459 9.01825C14.9468 9.35464 15.1461 9.6919 15.3315 10.0067L15.4014 10.1249C15.6947 10.6192 15.9431 11.0375 16.1078 11.2928C16.1696 11.3879 16.2121 11.4942 16.2328 11.6057C16.2535 11.7172 16.252 11.8317 16.2285 11.9426C16.2049 12.0536 16.1597 12.1588 16.0955 12.2523C16.0313 12.3457 15.9493 12.4257 15.8542 12.4874C15.7592 12.5492 15.6528 12.5917 15.5413 12.6124C15.4298 12.6331 15.3153 12.6316 15.2044 12.6081C15.0935 12.5845 14.9883 12.5394 14.8948 12.4751C14.8013 12.4109 14.7214 12.329 14.6596 12.2339C14.4621 11.9285 14.1636 11.4213 13.8419 10.8771L13.722 10.6735L13.7211 10.6726C13.5719 10.4199 13.4192 10.1611 13.2683 9.91013C13.0026 9.46591 12.7456 9.04757 12.5265 8.71549C12.4133 8.53529 12.2903 8.36137 12.1582 8.1945C12.1482 8.18188 12.1367 8.16978 12.1254 8.15828C11.9356 7.98701 11.7149 7.85352 11.475 7.76495C11.4111 7.75562 11.3483 7.73942 11.2879 7.71665C11.0653 7.74252 10.8523 7.82447 10.6686 7.95299C10.5359 8.11149 10.4484 8.30276 10.4152 8.50673C10.3819 8.7107 10.4042 8.91986 10.4797 9.11226L10.7531 9.62117C11.1162 9.77557 11.4543 9.98431 11.7554 10.2405C11.9874 10.4673 12.1901 10.7218 12.3592 10.9978C12.5455 11.2825 12.7439 11.6189 12.9362 11.9535C13.0518 12.1545 13.1657 12.3563 13.2752 12.5513L13.2812 12.5616L13.3157 12.6237C13.5685 13.0705 13.7945 13.4699 13.979 13.7554C14.0432 13.8505 14.0878 13.9574 14.1102 14.0699C14.1326 14.1824 14.1323 14.2982 14.1093 14.4106C14.0864 14.523 14.0412 14.6297 13.9766 14.7244C13.9119 14.8192 13.829 14.9001 13.7327 14.9624C13.6363 15.0246 13.5286 15.0671 13.4156 15.0873C13.3027 15.1074 13.1869 15.1048 13.075 15.0796C12.9631 15.0545 12.8573 15.0073 12.7639 14.9407C12.6704 14.8742 12.5912 14.7897 12.5308 14.6921C12.2615 14.2614 12.0046 13.8231 11.7606 13.3776C11.6535 13.1874 11.5456 12.9977 11.4371 12.8083C11.271 12.5132 11.0964 12.223 10.9135 11.938C10.8476 11.8383 10.7789 11.7405 10.7074 11.6447C10.6764 11.6028 10.6427 11.5631 10.6064 11.5257C10.4145 11.3669 10.1984 11.2396 9.96643 11.1488C9.90321 11.1383 9.84132 11.1209 9.78184 11.097C9.55279 11.1386 9.33574 11.2302 9.14614 11.3653C9.00861 11.5333 8.91655 11.7339 8.87879 11.9478C8.84103 12.1617 8.85884 12.3816 8.9305 12.5866L11.1076 16.2672L14.0946 21.1475C14.8975 22.2005 16.0567 22.9249 17.3551 23.1849ZM1.35294 4.37165L2.84602 5.37394C2.91339 5.42058 2.965 5.48658 2.99404 5.5632C3.02307 5.63982 3.02815 5.72345 3.00861 5.80303C2.98906 5.8826 2.94582 5.95436 2.8846 6.00882C2.82337 6.06327 2.74706 6.09785 2.66575 6.10798L0.879394 6.34087C0.815027 6.34889 0.749676 6.34114 0.688967 6.3183C0.628258 6.29546 0.574011 6.2582 0.530897 6.20974C0.487782 6.16128 0.457092 6.10306 0.441469 6.04011C0.425847 5.97715 0.425759 5.91134 0.441215 5.84835L0.736209 4.61317C0.752247 4.55048 0.782962 4.49252 0.82582 4.44405C0.868678 4.39557 0.922449 4.35799 0.982695 4.3344C1.04294 4.31081 1.10793 4.30188 1.17231 4.30836C1.23669 4.31483 1.2986 4.33653 1.35294 4.37165Z"/>
</mask>
<path d="M5.65106 2.42313C5.69891 2.48719 5.76538 2.5349 5.84138 2.55976C5.91738 2.58461 5.9992 2.58538 6.07565 2.56197C6.1521 2.53856 6.21946 2.49212 6.26852 2.42898C6.31758 2.36584 6.34594 2.28909 6.34973 2.20922L6.46876 0.42459C6.47366 0.361285 6.46319 0.297733 6.43825 0.239343C6.41331 0.180952 6.37463 0.129451 6.32551 0.0892206C6.27638 0.0489903 6.21827 0.0212219 6.15611 0.00827792C6.09395 -0.00466608 6.02958 -0.0024025 5.96848 0.014876L4.7954 0.379737C4.73471 0.399692 4.67963 0.433766 4.63467 0.479158C4.58971 0.52455 4.55617 0.579964 4.53681 0.640844C4.51744 0.701723 4.5128 0.76633 4.52327 0.829353C4.53373 0.892376 4.55901 0.952015 4.59701 1.00337L5.65106 2.42313ZM3.61542 3.8222L2.01107 3.14941C1.953 3.1258 1.90164 3.08828 1.8615 3.04014C1.82136 2.992 1.79368 2.93472 1.78089 2.87336C1.76811 2.812 1.77062 2.74844 1.7882 2.68827C1.80577 2.62811 1.83788 2.5732 1.88168 2.52837L2.71837 1.63993C2.76137 1.59455 2.81471 1.56022 2.87383 1.53988C2.93296 1.51953 2.99612 1.51378 3.05795 1.52309C3.11978 1.53241 3.17845 1.55652 3.22895 1.59339C3.27946 1.63025 3.32031 1.67877 3.34803 1.73481L4.11571 3.29604C4.1489 3.36706 4.15992 3.44644 4.14732 3.52382C4.13471 3.60119 4.09908 3.67297 4.04506 3.72978C3.99104 3.7866 3.92114 3.82581 3.8445 3.84229C3.76786 3.85878 3.68803 3.85178 3.61542 3.8222ZM24.422 7.3906C24.7107 7.64032 24.9464 7.94539 25.1152 8.28777C25.2839 8.63016 25.3823 9.0029 25.4045 9.38397V17.5308C25.4709 18.8142 25.1951 20.0922 24.6052 21.2339C24.0153 22.3756 23.1326 23.3401 22.0474 24.0285C20.9734 24.6701 19.7438 25.0045 18.4928 24.9954C17.6529 24.9942 16.8191 24.8525 16.0259 24.5762C15.268 24.8554 14.4668 24.9988 13.659 24.9997C12.5335 25.01 11.4214 24.7542 10.4135 24.2531C9.40558 23.752 8.53036 23.0198 7.85921 22.1162L4.86527 17.2281L2.70888 13.5881C2.4081 13.0071 2.31628 12.3404 2.44884 11.6998C2.58139 11.0591 2.93025 10.4836 3.43688 10.0697C3.63095 9.93773 3.8371 9.8256 4.0536 9.73417C3.86148 9.18558 3.84994 8.58992 4.02066 8.0343C4.19138 7.47868 4.5354 6.99227 5.00242 6.64621C5.19218 6.52977 5.39057 6.43057 5.59758 6.35036C5.56998 6.12695 5.5717 5.90183 5.60362 5.67842C5.66154 5.27913 5.80772 4.89776 6.03153 4.56204C6.25534 4.22633 6.55115 3.94472 6.89745 3.73767C7.37396 3.47123 7.91865 3.35174 8.46292 3.39426C9.0072 3.43678 9.52673 3.6394 9.95608 3.9766C10.101 3.8222 10.2666 3.68851 10.4469 3.57724C11.0032 3.24386 11.6681 3.14197 12.2988 3.29346C12.6705 3.19407 13.0578 3.16626 13.4399 3.21151C13.9303 3.26449 14.3931 3.46477 14.7674 3.78597C14.9149 3.62899 15.0831 3.49184 15.2668 3.37799C15.8575 3.03001 16.562 2.93021 17.2261 3.10043C17.8902 3.27066 18.4598 3.69704 18.8102 4.28626L20.5974 7.47772C20.8323 7.23618 21.1125 7.0433 21.422 6.9101C21.7315 6.7769 22.0642 6.70599 22.4011 6.70142C23.1386 6.66126 23.863 6.90774 24.422 7.3906ZM14.2024 10.6424H14.1973L14.1654 10.664L14.1878 10.6502L14.2024 10.6424ZM8.31809 5.11604C8.13782 5.10318 7.95726 5.13674 7.79365 5.21351V5.21006C7.66477 5.28327 7.55422 5.38484 7.47039 5.50708C7.38655 5.62932 7.33162 5.76902 7.30976 5.91563C7.28725 6.08234 7.32289 6.25171 7.41068 6.39521L8.69071 8.34028C8.71722 7.96867 8.82782 7.60794 9.01415 7.28533C9.20048 6.96273 9.45768 6.68667 9.76632 6.47801C9.80772 6.45214 9.84912 6.43402 9.88966 6.41505C9.91727 6.40297 9.94573 6.38917 9.97419 6.37451C9.75107 6.34581 9.54816 6.23057 9.40922 6.05364L8.8753 5.36359C8.8563 5.33903 8.83873 5.3134 8.82268 5.28682C8.67181 5.18777 8.4981 5.12897 8.31809 5.11604ZM6.34455 7.91935C6.18604 7.9649 6.03496 8.03318 5.89603 8.12205L5.89861 8.1186C5.76952 8.27459 5.68474 8.46244 5.65318 8.66245C5.62162 8.86246 5.64442 9.06728 5.7192 9.25545C5.82875 9.46591 5.90983 9.61772 5.97193 9.73503L5.97797 9.74538L7.18986 11.5671C7.28474 11.066 7.51591 10.6002 7.85748 10.2215L6.34455 7.91935ZM6.34024 16.3422L9.29709 21.1725L9.29967 21.1691C9.8166 21.8502 10.4899 22.3968 11.2626 22.7628C12.0353 23.1288 12.8848 23.3035 13.7393 23.272C13.3302 22.9258 12.9663 22.5297 12.6559 22.0929L9.63176 17.1565L8.35431 15.0001C8.16779 15.1036 7.94925 15.1336 7.74172 15.0841C7.5342 15.0347 7.35271 14.9093 7.23299 14.7327L4.91616 11.2609C4.72984 11.3068 4.55411 11.3882 4.39863 11.5007C4.2628 11.6656 4.1717 11.8626 4.13408 12.0729C4.09646 12.2832 4.1136 12.4996 4.18385 12.7014L6.34024 16.3422ZM17.3551 23.1849C18.6533 23.4446 20.0016 23.2222 21.1478 22.5595L21.1503 22.5561C21.9674 22.0304 22.6317 21.2989 23.0764 20.4351C23.5211 19.5713 23.7305 18.6056 23.6837 17.6352V9.43831C23.6697 9.29021 23.6264 9.14637 23.5563 9.01517C23.4862 8.88397 23.3907 8.76803 23.2753 8.67411C23.1599 8.58019 23.027 8.51015 22.8844 8.46809C22.7417 8.42603 22.592 8.41278 22.4442 8.42912C22.2228 8.43344 22.0108 8.5191 21.8485 8.66975C21.6862 8.82041 21.5851 9.02551 21.5644 9.24596C21.899 9.84716 22.1768 10.3423 22.3139 10.5795C22.4171 10.7766 22.44 11.006 22.378 11.2196C22.3161 11.4333 22.1739 11.6147 21.9813 11.7261C21.7887 11.8374 21.5605 11.87 21.3444 11.8171C21.1283 11.7642 20.9411 11.6298 20.8217 11.442C20.5486 10.9636 20.2786 10.4835 20.0118 10.0016L19.9505 9.89202V9.84026C19.9471 9.83336 19.9419 9.82905 19.9376 9.82301C19.9324 9.81697 19.9264 9.81094 19.9221 9.80317L17.3344 5.18073C17.2675 5.03983 17.1613 4.92129 17.0286 4.8394C16.8958 4.75752 16.7422 4.71579 16.5863 4.71926C16.4304 4.72272 16.2788 4.77123 16.1498 4.85893C16.0208 4.94663 15.92 5.06977 15.8594 5.21351L16.7427 6.63155L16.8384 6.78681C17.499 7.85429 18.1655 8.91813 18.8378 9.97827C18.9567 10.1703 18.9955 10.4012 18.946 10.6215C18.8965 10.8418 18.7625 11.0339 18.5729 11.1566C18.3833 11.2792 18.1532 11.3226 17.9319 11.2774C17.7107 11.2323 17.516 11.1022 17.3896 10.915C16.7125 9.84696 16.0406 8.77565 15.3738 7.70112L14.6346 6.51424L14.2844 5.95099L14.2732 5.93374L14.2482 5.89234C14.2447 5.88803 14.2404 5.88544 14.2361 5.88199C14.231 5.87785 14.2264 5.87323 14.2223 5.86819L13.6832 5.16693C13.6649 5.14209 13.6476 5.11647 13.6314 5.09016C13.5185 4.98685 13.3721 4.92774 13.2191 4.92369C13.002 4.8872 12.7789 4.91727 12.5791 5.00994C12.448 5.08468 12.3356 5.18817 12.2503 5.31262C12.165 5.43707 12.109 5.57925 12.0866 5.72845C12.0647 5.88811 12.0949 6.05058 12.1729 6.19165C12.5735 6.3507 12.9433 6.57838 13.2657 6.86444C13.5314 7.13528 13.766 7.43632 13.9644 7.7615C14.205 8.12464 14.4767 8.56972 14.7459 9.01825C14.9468 9.35464 15.1461 9.6919 15.3315 10.0067L15.4014 10.1249C15.6947 10.6192 15.9431 11.0375 16.1078 11.2928C16.1696 11.3879 16.2121 11.4942 16.2328 11.6057C16.2535 11.7172 16.252 11.8317 16.2285 11.9426C16.2049 12.0536 16.1597 12.1588 16.0955 12.2523C16.0313 12.3457 15.9493 12.4257 15.8542 12.4874C15.7592 12.5492 15.6528 12.5917 15.5413 12.6124C15.4298 12.6331 15.3153 12.6316 15.2044 12.6081C15.0935 12.5845 14.9883 12.5394 14.8948 12.4751C14.8013 12.4109 14.7214 12.329 14.6596 12.2339C14.4621 11.9285 14.1636 11.4213 13.8419 10.8771L13.722 10.6735L13.7211 10.6726C13.5719 10.4199 13.4192 10.1611 13.2683 9.91013C13.0026 9.46591 12.7456 9.04757 12.5265 8.71549C12.4133 8.53529 12.2903 8.36137 12.1582 8.1945C12.1482 8.18188 12.1367 8.16978 12.1254 8.15828C11.9356 7.98701 11.7149 7.85352 11.475 7.76495C11.4111 7.75562 11.3483 7.73942 11.2879 7.71665C11.0653 7.74252 10.8523 7.82447 10.6686 7.95299C10.5359 8.11149 10.4484 8.30276 10.4152 8.50673C10.3819 8.7107 10.4042 8.91986 10.4797 9.11226L10.7531 9.62117C11.1162 9.77557 11.4543 9.98431 11.7554 10.2405C11.9874 10.4673 12.1901 10.7218 12.3592 10.9978C12.5455 11.2825 12.7439 11.6189 12.9362 11.9535C13.0518 12.1545 13.1657 12.3563 13.2752 12.5513L13.2812 12.5616L13.3157 12.6237C13.5685 13.0705 13.7945 13.4699 13.979 13.7554C14.0432 13.8505 14.0878 13.9574 14.1102 14.0699C14.1326 14.1824 14.1323 14.2982 14.1093 14.4106C14.0864 14.523 14.0412 14.6297 13.9766 14.7244C13.9119 14.8192 13.829 14.9001 13.7327 14.9624C13.6363 15.0246 13.5286 15.0671 13.4156 15.0873C13.3027 15.1074 13.1869 15.1048 13.075 15.0796C12.9631 15.0545 12.8573 15.0073 12.7639 14.9407C12.6704 14.8742 12.5912 14.7897 12.5308 14.6921C12.2615 14.2614 12.0046 13.8231 11.7606 13.3776C11.6535 13.1874 11.5456 12.9977 11.4371 12.8083C11.271 12.5132 11.0964 12.223 10.9135 11.938C10.8476 11.8383 10.7789 11.7405 10.7074 11.6447C10.6764 11.6028 10.6427 11.5631 10.6064 11.5257C10.4145 11.3669 10.1984 11.2396 9.96643 11.1488C9.90321 11.1383 9.84132 11.1209 9.78184 11.097C9.55279 11.1386 9.33574 11.2302 9.14614 11.3653C9.00861 11.5333 8.91655 11.7339 8.87879 11.9478C8.84103 12.1617 8.85884 12.3816 8.9305 12.5866L11.1076 16.2672L14.0946 21.1475C14.8975 22.2005 16.0567 22.9249 17.3551 23.1849ZM1.35294 4.37165L2.84602 5.37394C2.91339 5.42058 2.965 5.48658 2.99404 5.5632C3.02307 5.63982 3.02815 5.72345 3.00861 5.80303C2.98906 5.8826 2.94582 5.95436 2.8846 6.00882C2.82337 6.06327 2.74706 6.09785 2.66575 6.10798L0.879394 6.34087C0.815027 6.34889 0.749676 6.34114 0.688967 6.3183C0.628258 6.29546 0.574011 6.2582 0.530897 6.20974C0.487782 6.16128 0.457092 6.10306 0.441469 6.04011C0.425847 5.97715 0.425759 5.91134 0.441215 5.84835L0.736209 4.61317C0.752247 4.55048 0.782962 4.49252 0.82582 4.44405C0.868678 4.39557 0.922449 4.35799 0.982695 4.3344C1.04294 4.31081 1.10793 4.30188 1.17231 4.30836C1.23669 4.31483 1.2986 4.33653 1.35294 4.37165Z" fill="#E7A837" stroke="#E7A837" stroke-width="2" mask="url(#path-1-inside-1_2019_560)"/>
</svg>
