<svg width="26" height="25" viewBox="0 0 26 25" fill="none" xmlns="http://www.w3.org/2000/svg">
<mask id="path-1-inside-1_2061_1171" fill="white">
<path d="M5.98455 2.42313C6.03241 2.48719 6.09888 2.5349 6.17488 2.55976C6.25087 2.58461 6.33269 2.58538 6.40915 2.56197C6.4856 2.53856 6.55296 2.49212 6.60202 2.42898C6.65108 2.36584 6.67944 2.28909 6.68323 2.20922L6.80226 0.42459C6.80716 0.361285 6.79669 0.297733 6.77175 0.239343C6.7468 0.180952 6.70813 0.129451 6.659 0.0892206C6.60988 0.0489903 6.55177 0.0212219 6.4896 0.00827792C6.42744 -0.00466608 6.36307 -0.0024025 6.30198 0.014876L5.1289 0.379737C5.06821 0.399692 5.01312 0.433766 4.96817 0.479158C4.92321 0.52455 4.88967 0.579964 4.8703 0.640844C4.85094 0.701723 4.8463 0.76633 4.85676 0.829353C4.86723 0.892376 4.8925 0.952015 4.93051 1.00337L5.98455 2.42313ZM3.94892 3.8222L2.34456 3.14941C2.2865 3.1258 2.23514 3.08828 2.195 3.04014C2.15486 2.992 2.12717 2.93472 2.11439 2.87336C2.10161 2.812 2.10411 2.74844 2.12169 2.68827C2.13927 2.62811 2.17137 2.5732 2.21518 2.52837L3.05186 1.63993C3.09487 1.59455 3.1482 1.56022 3.20733 1.53988C3.26646 1.51953 3.32962 1.51378 3.39145 1.52309C3.45328 1.53241 3.51194 1.55652 3.56245 1.59339C3.61295 1.63025 3.65381 1.67877 3.68153 1.73481L4.4492 3.29604C4.4824 3.36706 4.49342 3.44644 4.48081 3.52382C4.46821 3.60119 4.43257 3.67297 4.37855 3.72978C4.32453 3.7866 4.25464 3.82581 4.178 3.84229C4.10136 3.85878 4.02152 3.85178 3.94892 3.8222ZM24.7555 7.3906C25.0442 7.64032 25.2799 7.94539 25.4487 8.28777C25.6174 8.63016 25.7158 9.0029 25.738 9.38397V17.5308C25.8044 18.8142 25.5286 20.0922 24.9387 21.2339C24.3488 22.3756 23.4661 23.3401 22.3809 24.0285C21.3069 24.6701 20.0773 25.0045 18.8263 24.9954C17.9864 24.9942 17.1526 24.8525 16.3594 24.5762C15.6015 24.8554 14.8002 24.9988 13.9925 24.9997C12.867 25.01 11.7549 24.7542 10.747 24.2531C9.73907 23.752 8.86386 23.0198 8.1927 22.1162L5.19877 17.2281L3.04237 13.5881C2.74159 13.0071 2.64978 12.3404 2.78233 11.6998C2.91489 11.0591 3.26375 10.4836 3.77037 10.0697C3.96445 9.93773 4.1706 9.8256 4.3871 9.73417C4.19498 9.18558 4.18343 8.58992 4.35415 8.0343C4.52487 7.47868 4.8689 6.99227 5.33591 6.64621C5.52567 6.52977 5.72406 6.43057 5.93108 6.35036C5.90347 6.12695 5.9052 5.90183 5.93711 5.67842C5.99504 5.27913 6.14122 4.89776 6.36503 4.56204C6.58883 4.22633 6.88465 3.94472 7.23095 3.73767C7.70745 3.47123 8.25214 3.35174 8.79642 3.39426C9.3407 3.43678 9.86023 3.6394 10.2896 3.9766C10.4345 3.8222 10.6001 3.68851 10.7804 3.57724C11.3367 3.24386 12.0016 3.14197 12.6323 3.29346C13.004 3.19407 13.3913 3.16626 13.7734 3.21151C14.2638 3.26449 14.7266 3.46477 15.1009 3.78597C15.2484 3.62899 15.4166 3.49184 15.6003 3.37799C16.191 3.03001 16.8955 2.93021 17.5596 3.10043C18.2237 3.27066 18.7933 3.69704 19.1437 4.28626L20.9309 7.47772C21.1658 7.23618 21.446 7.0433 21.7555 6.9101C22.065 6.7769 22.3977 6.70599 22.7345 6.70142C23.4721 6.66126 24.1965 6.9086 24.7555 7.39146V7.3906ZM14.5359 10.6424H14.5308L14.4989 10.664L14.5213 10.6502L14.5359 10.6416V10.6424ZM8.65158 5.11604C8.47131 5.10318 8.29076 5.13674 8.12715 5.21351V5.21006C7.99826 5.28327 7.88772 5.38484 7.80389 5.50708C7.72005 5.62932 7.66512 5.76902 7.64325 5.91563C7.62074 6.08234 7.65638 6.25171 7.74417 6.39521L9.02421 8.34028C9.05072 7.96867 9.16132 7.60794 9.34765 7.28533C9.53398 6.96273 9.79118 6.68667 10.0998 6.47801C10.1412 6.45214 10.1826 6.43402 10.2232 6.41505C10.2508 6.40297 10.2792 6.38917 10.3077 6.37451C10.0846 6.34581 9.88165 6.23057 9.74272 6.05364L9.20879 5.36359C9.1898 5.33903 9.17223 5.3134 9.15618 5.28682C9.00531 5.18777 8.8316 5.12897 8.65158 5.11604ZM6.67805 7.91935C6.51954 7.9649 6.36846 8.03318 6.22952 8.12205L6.23211 8.1186C6.10301 8.27459 6.01824 8.46244 5.98668 8.66245C5.95511 8.86246 5.97791 9.06728 6.0527 9.25545C6.16224 9.46591 6.24332 9.61772 6.30543 9.73503L6.31146 9.74538L7.52336 11.5671C7.61824 11.066 7.8494 10.6002 8.19098 10.2215L6.67805 7.91935ZM6.67374 16.3422L9.63058 21.1725L9.63317 21.1691C10.1501 21.8502 10.8234 22.3968 11.5961 22.7628C12.3688 23.1289 13.2183 23.3035 14.0728 23.272C13.6637 22.9258 13.2998 22.5297 12.9894 22.0929L9.96526 17.1565L8.68781 15.0001C8.50128 15.1036 8.28275 15.1336 8.07522 15.0841C7.86769 15.0347 7.6862 14.9093 7.56648 14.7327L5.24966 11.2609C5.06333 11.3068 4.88761 11.3882 4.73212 11.5007C4.5963 11.6656 4.50519 11.8626 4.46758 12.0729C4.42996 12.2832 4.4471 12.4996 4.51735 12.7014L6.67374 16.3414V16.3422ZM17.6886 23.1849C18.9868 23.4446 20.3351 23.2222 21.4813 22.5595L21.4838 22.5561C22.3009 22.0304 22.9652 21.2989 23.4099 20.4351C23.8545 19.5713 24.064 18.6056 24.0172 17.6352V9.43831C24.0032 9.29021 23.9599 9.14637 23.8898 9.01517C23.8197 8.88397 23.7241 8.76803 23.6088 8.67411C23.4934 8.58019 23.3605 8.51015 23.2179 8.46809C23.0752 8.42603 22.9255 8.41278 22.7777 8.42912C22.5563 8.43344 22.3443 8.5191 22.182 8.66975C22.0197 8.82041 21.9186 9.02551 21.8979 9.24596C22.2325 9.84716 22.5103 10.3423 22.6474 10.5795C22.7506 10.7766 22.7735 11.006 22.7115 11.2196C22.6495 11.4333 22.5074 11.6147 22.3148 11.7261C22.1222 11.8374 21.894 11.87 21.6779 11.8171C21.4618 11.7642 21.2746 11.6298 21.1552 11.442C20.8821 10.9636 20.6121 10.4835 20.3453 10.0016L20.284 9.89202V9.84026C20.2806 9.83336 20.2754 9.82905 20.2711 9.82301C20.2659 9.81697 20.2599 9.81094 20.2556 9.80317L17.6679 5.18073C17.601 5.03983 17.4948 4.92129 17.3621 4.8394C17.2293 4.75752 17.0757 4.71579 16.9198 4.71926C16.7639 4.72272 16.6123 4.77123 16.4833 4.85893C16.3543 4.94663 16.2535 5.06977 16.1929 5.21351L17.0762 6.63155L17.1719 6.78681C17.8325 7.85429 18.499 8.91813 19.1713 9.97827C19.2902 10.1703 19.329 10.4012 19.2795 10.6215C19.23 10.8418 19.096 11.0339 18.9064 11.1566C18.7168 11.2792 18.4867 11.3226 18.2654 11.2774C18.0442 11.2323 17.8495 11.1022 17.7231 10.915C17.046 9.84696 16.3741 8.77565 15.7073 7.70112L14.9681 6.51424L14.6179 5.95099L14.6067 5.93374L14.5817 5.89234C14.5782 5.88803 14.5739 5.88544 14.5696 5.88199C14.5645 5.87785 14.5599 5.87323 14.5558 5.86819L14.0167 5.16693C13.9984 5.14209 13.9811 5.11647 13.9649 5.09016C13.852 4.98685 13.7056 4.92774 13.5526 4.92369C13.3355 4.8872 13.1124 4.91727 12.9126 5.00994C12.7815 5.08468 12.6691 5.18817 12.5838 5.31262C12.4985 5.43707 12.4425 5.57925 12.4201 5.72845C12.3982 5.88811 12.4284 6.05058 12.5063 6.19165C12.907 6.3507 13.2768 6.57838 13.5992 6.86444C13.8649 7.13528 14.0995 7.43632 14.2979 7.7615C14.5385 8.12464 14.8102 8.56972 15.0794 9.01825C15.2803 9.35464 15.4796 9.6919 15.665 10.0067L15.7349 10.1249C16.0282 10.6192 16.2766 11.0375 16.4413 11.2928C16.5031 11.3879 16.5456 11.4942 16.5663 11.6057C16.587 11.7172 16.5855 11.8317 16.562 11.9426C16.5384 12.0536 16.4932 12.1588 16.429 12.2523C16.3648 12.3457 16.2828 12.4257 16.1877 12.4874C16.0926 12.5492 15.9863 12.5917 15.8748 12.6124C15.7633 12.6331 15.6488 12.6316 15.5379 12.6081C15.427 12.5845 15.3218 12.5394 15.2283 12.4751C15.1348 12.4109 15.0549 12.3289 14.9931 12.2339C14.7956 11.9285 14.4971 11.4213 14.1754 10.8771L14.0555 10.6735L14.0546 10.6726C13.9054 10.4199 13.7527 10.1611 13.6018 9.91013C13.3361 9.46591 13.0791 9.04757 12.86 8.71549C12.7468 8.53529 12.6238 8.36137 12.4917 8.1945H12.4908C12.4808 8.18188 12.4702 8.16978 12.4589 8.15828C12.2691 7.98701 12.0484 7.85352 11.8085 7.76495C11.7446 7.75562 11.6818 7.73942 11.6214 7.71665C11.3988 7.74252 11.1858 7.82447 11.002 7.95299C10.8694 8.11149 10.7819 8.30276 10.7487 8.50673C10.7154 8.7107 10.7377 8.91986 10.8131 9.11226L11.0866 9.62117C11.4497 9.77557 11.7878 9.98431 12.0889 10.2405C12.3209 10.4673 12.5236 10.7218 12.6927 10.9978C12.879 11.2825 13.0774 11.6189 13.2697 11.9535C13.3853 12.1545 13.4992 12.3563 13.6087 12.5513L13.6147 12.5616L13.6492 12.6237C13.902 13.0705 14.128 13.4699 14.3125 13.7554C14.3767 13.8505 14.4213 13.9574 14.4437 14.0699C14.4661 14.1824 14.4658 14.2982 14.4428 14.4106C14.4199 14.523 14.3747 14.6297 14.3101 14.7244C14.2454 14.8192 14.1625 14.9001 14.0661 14.9624C13.9698 15.0246 13.8621 15.0671 13.7491 15.0873C13.6362 15.1074 13.5204 15.1048 13.4085 15.0796C13.2966 15.0545 13.1908 15.0073 13.0974 14.9407C13.0039 14.8742 12.9247 14.7897 12.8643 14.6921C12.595 14.2614 12.3381 13.8231 12.094 13.3776C11.987 13.1874 11.8791 12.9977 11.7706 12.8083C11.6045 12.5132 11.4299 12.223 11.247 11.938C11.1811 11.8383 11.1124 11.7405 11.0409 11.6447C11.0099 11.6028 10.9762 11.5631 10.9399 11.5257C10.748 11.3669 10.5319 11.2396 10.2999 11.1488C10.2367 11.1383 10.1748 11.1209 10.1153 11.097C9.88629 11.1386 9.66923 11.2302 9.47964 11.3653C9.3421 11.5333 9.25005 11.7339 9.21229 11.9478C9.17453 12.1617 9.19233 12.3816 9.264 12.5866L11.4411 16.2672L14.4281 21.1475C15.231 22.2005 16.3902 22.9249 17.6886 23.1849ZM1.68643 4.37165L3.17952 5.37394C3.24689 5.42058 3.2985 5.48658 3.32753 5.5632C3.35656 5.63982 3.36165 5.72345 3.3421 5.80303C3.32256 5.8826 3.27932 5.95436 3.21809 6.00882C3.15687 6.06327 3.08055 6.09785 2.99925 6.10798L1.21289 6.34087C1.14852 6.34889 1.08317 6.34114 1.02246 6.3183C0.961754 6.29546 0.907507 6.2582 0.864393 6.20974C0.821278 6.16128 0.790588 6.10306 0.774965 6.04011C0.759343 5.97715 0.759256 5.91134 0.774711 5.84835L1.06971 4.61317C1.08574 4.55049 1.11646 4.49252 1.15932 4.44405C1.20217 4.39557 1.25595 4.35799 1.31619 4.3344C1.37644 4.31081 1.44143 4.30188 1.50581 4.30836C1.57018 4.31483 1.6321 4.33653 1.68643 4.37165Z"/>
</mask>
<path d="M5.98455 2.42313C6.03241 2.48719 6.09888 2.5349 6.17488 2.55976C6.25087 2.58461 6.33269 2.58538 6.40915 2.56197C6.4856 2.53856 6.55296 2.49212 6.60202 2.42898C6.65108 2.36584 6.67944 2.28909 6.68323 2.20922L6.80226 0.42459C6.80716 0.361285 6.79669 0.297733 6.77175 0.239343C6.7468 0.180952 6.70813 0.129451 6.659 0.0892206C6.60988 0.0489903 6.55177 0.0212219 6.4896 0.00827792C6.42744 -0.00466608 6.36307 -0.0024025 6.30198 0.014876L5.1289 0.379737C5.06821 0.399692 5.01312 0.433766 4.96817 0.479158C4.92321 0.52455 4.88967 0.579964 4.8703 0.640844C4.85094 0.701723 4.8463 0.76633 4.85676 0.829353C4.86723 0.892376 4.8925 0.952015 4.93051 1.00337L5.98455 2.42313ZM3.94892 3.8222L2.34456 3.14941C2.2865 3.1258 2.23514 3.08828 2.195 3.04014C2.15486 2.992 2.12717 2.93472 2.11439 2.87336C2.10161 2.812 2.10411 2.74844 2.12169 2.68827C2.13927 2.62811 2.17137 2.5732 2.21518 2.52837L3.05186 1.63993C3.09487 1.59455 3.1482 1.56022 3.20733 1.53988C3.26646 1.51953 3.32962 1.51378 3.39145 1.52309C3.45328 1.53241 3.51194 1.55652 3.56245 1.59339C3.61295 1.63025 3.65381 1.67877 3.68153 1.73481L4.4492 3.29604C4.4824 3.36706 4.49342 3.44644 4.48081 3.52382C4.46821 3.60119 4.43257 3.67297 4.37855 3.72978C4.32453 3.7866 4.25464 3.82581 4.178 3.84229C4.10136 3.85878 4.02152 3.85178 3.94892 3.8222ZM24.7555 7.3906C25.0442 7.64032 25.2799 7.94539 25.4487 8.28777C25.6174 8.63016 25.7158 9.0029 25.738 9.38397V17.5308C25.8044 18.8142 25.5286 20.0922 24.9387 21.2339C24.3488 22.3756 23.4661 23.3401 22.3809 24.0285C21.3069 24.6701 20.0773 25.0045 18.8263 24.9954C17.9864 24.9942 17.1526 24.8525 16.3594 24.5762C15.6015 24.8554 14.8002 24.9988 13.9925 24.9997C12.867 25.01 11.7549 24.7542 10.747 24.2531C9.73907 23.752 8.86386 23.0198 8.1927 22.1162L5.19877 17.2281L3.04237 13.5881C2.74159 13.0071 2.64978 12.3404 2.78233 11.6998C2.91489 11.0591 3.26375 10.4836 3.77037 10.0697C3.96445 9.93773 4.1706 9.8256 4.3871 9.73417C4.19498 9.18558 4.18343 8.58992 4.35415 8.0343C4.52487 7.47868 4.8689 6.99227 5.33591 6.64621C5.52567 6.52977 5.72406 6.43057 5.93108 6.35036C5.90347 6.12695 5.9052 5.90183 5.93711 5.67842C5.99504 5.27913 6.14122 4.89776 6.36503 4.56204C6.58883 4.22633 6.88465 3.94472 7.23095 3.73767C7.70745 3.47123 8.25214 3.35174 8.79642 3.39426C9.3407 3.43678 9.86023 3.6394 10.2896 3.9766C10.4345 3.8222 10.6001 3.68851 10.7804 3.57724C11.3367 3.24386 12.0016 3.14197 12.6323 3.29346C13.004 3.19407 13.3913 3.16626 13.7734 3.21151C14.2638 3.26449 14.7266 3.46477 15.1009 3.78597C15.2484 3.62899 15.4166 3.49184 15.6003 3.37799C16.191 3.03001 16.8955 2.93021 17.5596 3.10043C18.2237 3.27066 18.7933 3.69704 19.1437 4.28626L20.9309 7.47772C21.1658 7.23618 21.446 7.0433 21.7555 6.9101C22.065 6.7769 22.3977 6.70599 22.7345 6.70142C23.4721 6.66126 24.1965 6.9086 24.7555 7.39146V7.3906ZM14.5359 10.6424H14.5308L14.4989 10.664L14.5213 10.6502L14.5359 10.6416V10.6424ZM8.65158 5.11604C8.47131 5.10318 8.29076 5.13674 8.12715 5.21351V5.21006C7.99826 5.28327 7.88772 5.38484 7.80389 5.50708C7.72005 5.62932 7.66512 5.76902 7.64325 5.91563C7.62074 6.08234 7.65638 6.25171 7.74417 6.39521L9.02421 8.34028C9.05072 7.96867 9.16132 7.60794 9.34765 7.28533C9.53398 6.96273 9.79118 6.68667 10.0998 6.47801C10.1412 6.45214 10.1826 6.43402 10.2232 6.41505C10.2508 6.40297 10.2792 6.38917 10.3077 6.37451C10.0846 6.34581 9.88165 6.23057 9.74272 6.05364L9.20879 5.36359C9.1898 5.33903 9.17223 5.3134 9.15618 5.28682C9.00531 5.18777 8.8316 5.12897 8.65158 5.11604ZM6.67805 7.91935C6.51954 7.9649 6.36846 8.03318 6.22952 8.12205L6.23211 8.1186C6.10301 8.27459 6.01824 8.46244 5.98668 8.66245C5.95511 8.86246 5.97791 9.06728 6.0527 9.25545C6.16224 9.46591 6.24332 9.61772 6.30543 9.73503L6.31146 9.74538L7.52336 11.5671C7.61824 11.066 7.8494 10.6002 8.19098 10.2215L6.67805 7.91935ZM6.67374 16.3422L9.63058 21.1725L9.63317 21.1691C10.1501 21.8502 10.8234 22.3968 11.5961 22.7628C12.3688 23.1289 13.2183 23.3035 14.0728 23.272C13.6637 22.9258 13.2998 22.5297 12.9894 22.0929L9.96526 17.1565L8.68781 15.0001C8.50128 15.1036 8.28275 15.1336 8.07522 15.0841C7.86769 15.0347 7.6862 14.9093 7.56648 14.7327L5.24966 11.2609C5.06333 11.3068 4.88761 11.3882 4.73212 11.5007C4.5963 11.6656 4.50519 11.8626 4.46758 12.0729C4.42996 12.2832 4.4471 12.4996 4.51735 12.7014L6.67374 16.3414V16.3422ZM17.6886 23.1849C18.9868 23.4446 20.3351 23.2222 21.4813 22.5595L21.4838 22.5561C22.3009 22.0304 22.9652 21.2989 23.4099 20.4351C23.8545 19.5713 24.064 18.6056 24.0172 17.6352V9.43831C24.0032 9.29021 23.9599 9.14637 23.8898 9.01517C23.8197 8.88397 23.7241 8.76803 23.6088 8.67411C23.4934 8.58019 23.3605 8.51015 23.2179 8.46809C23.0752 8.42603 22.9255 8.41278 22.7777 8.42912C22.5563 8.43344 22.3443 8.5191 22.182 8.66975C22.0197 8.82041 21.9186 9.02551 21.8979 9.24596C22.2325 9.84716 22.5103 10.3423 22.6474 10.5795C22.7506 10.7766 22.7735 11.006 22.7115 11.2196C22.6495 11.4333 22.5074 11.6147 22.3148 11.7261C22.1222 11.8374 21.894 11.87 21.6779 11.8171C21.4618 11.7642 21.2746 11.6298 21.1552 11.442C20.8821 10.9636 20.6121 10.4835 20.3453 10.0016L20.284 9.89202V9.84026C20.2806 9.83336 20.2754 9.82905 20.2711 9.82301C20.2659 9.81697 20.2599 9.81094 20.2556 9.80317L17.6679 5.18073C17.601 5.03983 17.4948 4.92129 17.3621 4.8394C17.2293 4.75752 17.0757 4.71579 16.9198 4.71926C16.7639 4.72272 16.6123 4.77123 16.4833 4.85893C16.3543 4.94663 16.2535 5.06977 16.1929 5.21351L17.0762 6.63155L17.1719 6.78681C17.8325 7.85429 18.499 8.91813 19.1713 9.97827C19.2902 10.1703 19.329 10.4012 19.2795 10.6215C19.23 10.8418 19.096 11.0339 18.9064 11.1566C18.7168 11.2792 18.4867 11.3226 18.2654 11.2774C18.0442 11.2323 17.8495 11.1022 17.7231 10.915C17.046 9.84696 16.3741 8.77565 15.7073 7.70112L14.9681 6.51424L14.6179 5.95099L14.6067 5.93374L14.5817 5.89234C14.5782 5.88803 14.5739 5.88544 14.5696 5.88199C14.5645 5.87785 14.5599 5.87323 14.5558 5.86819L14.0167 5.16693C13.9984 5.14209 13.9811 5.11647 13.9649 5.09016C13.852 4.98685 13.7056 4.92774 13.5526 4.92369C13.3355 4.8872 13.1124 4.91727 12.9126 5.00994C12.7815 5.08468 12.6691 5.18817 12.5838 5.31262C12.4985 5.43707 12.4425 5.57925 12.4201 5.72845C12.3982 5.88811 12.4284 6.05058 12.5063 6.19165C12.907 6.3507 13.2768 6.57838 13.5992 6.86444C13.8649 7.13528 14.0995 7.43632 14.2979 7.7615C14.5385 8.12464 14.8102 8.56972 15.0794 9.01825C15.2803 9.35464 15.4796 9.6919 15.665 10.0067L15.7349 10.1249C16.0282 10.6192 16.2766 11.0375 16.4413 11.2928C16.5031 11.3879 16.5456 11.4942 16.5663 11.6057C16.587 11.7172 16.5855 11.8317 16.562 11.9426C16.5384 12.0536 16.4932 12.1588 16.429 12.2523C16.3648 12.3457 16.2828 12.4257 16.1877 12.4874C16.0926 12.5492 15.9863 12.5917 15.8748 12.6124C15.7633 12.6331 15.6488 12.6316 15.5379 12.6081C15.427 12.5845 15.3218 12.5394 15.2283 12.4751C15.1348 12.4109 15.0549 12.3289 14.9931 12.2339C14.7956 11.9285 14.4971 11.4213 14.1754 10.8771L14.0555 10.6735L14.0546 10.6726C13.9054 10.4199 13.7527 10.1611 13.6018 9.91013C13.3361 9.46591 13.0791 9.04757 12.86 8.71549C12.7468 8.53529 12.6238 8.36137 12.4917 8.1945H12.4908C12.4808 8.18188 12.4702 8.16978 12.4589 8.15828C12.2691 7.98701 12.0484 7.85352 11.8085 7.76495C11.7446 7.75562 11.6818 7.73942 11.6214 7.71665C11.3988 7.74252 11.1858 7.82447 11.002 7.95299C10.8694 8.11149 10.7819 8.30276 10.7487 8.50673C10.7154 8.7107 10.7377 8.91986 10.8131 9.11226L11.0866 9.62117C11.4497 9.77557 11.7878 9.98431 12.0889 10.2405C12.3209 10.4673 12.5236 10.7218 12.6927 10.9978C12.879 11.2825 13.0774 11.6189 13.2697 11.9535C13.3853 12.1545 13.4992 12.3563 13.6087 12.5513L13.6147 12.5616L13.6492 12.6237C13.902 13.0705 14.128 13.4699 14.3125 13.7554C14.3767 13.8505 14.4213 13.9574 14.4437 14.0699C14.4661 14.1824 14.4658 14.2982 14.4428 14.4106C14.4199 14.523 14.3747 14.6297 14.3101 14.7244C14.2454 14.8192 14.1625 14.9001 14.0661 14.9624C13.9698 15.0246 13.8621 15.0671 13.7491 15.0873C13.6362 15.1074 13.5204 15.1048 13.4085 15.0796C13.2966 15.0545 13.1908 15.0073 13.0974 14.9407C13.0039 14.8742 12.9247 14.7897 12.8643 14.6921C12.595 14.2614 12.3381 13.8231 12.094 13.3776C11.987 13.1874 11.8791 12.9977 11.7706 12.8083C11.6045 12.5132 11.4299 12.223 11.247 11.938C11.1811 11.8383 11.1124 11.7405 11.0409 11.6447C11.0099 11.6028 10.9762 11.5631 10.9399 11.5257C10.748 11.3669 10.5319 11.2396 10.2999 11.1488C10.2367 11.1383 10.1748 11.1209 10.1153 11.097C9.88629 11.1386 9.66923 11.2302 9.47964 11.3653C9.3421 11.5333 9.25005 11.7339 9.21229 11.9478C9.17453 12.1617 9.19233 12.3816 9.264 12.5866L11.4411 16.2672L14.4281 21.1475C15.231 22.2005 16.3902 22.9249 17.6886 23.1849ZM1.68643 4.37165L3.17952 5.37394C3.24689 5.42058 3.2985 5.48658 3.32753 5.5632C3.35656 5.63982 3.36165 5.72345 3.3421 5.80303C3.32256 5.8826 3.27932 5.95436 3.21809 6.00882C3.15687 6.06327 3.08055 6.09785 2.99925 6.10798L1.21289 6.34087C1.14852 6.34889 1.08317 6.34114 1.02246 6.3183C0.961754 6.29546 0.907507 6.2582 0.864393 6.20974C0.821278 6.16128 0.790588 6.10306 0.774965 6.04011C0.759343 5.97715 0.759256 5.91134 0.774711 5.84835L1.06971 4.61317C1.08574 4.55049 1.11646 4.49252 1.15932 4.44405C1.20217 4.39557 1.25595 4.35799 1.31619 4.3344C1.37644 4.31081 1.44143 4.30188 1.50581 4.30836C1.57018 4.31483 1.6321 4.33653 1.68643 4.37165Z" fill="black" stroke="#949494" stroke-width="2" mask="url(#path-1-inside-1_2061_1171)"/>
</svg>
